<svg width="44" height="40" viewBox="0 0 44 40" fill="none" xmlns="http://www.w3.org/2000/svg">
<path d="M34.546 5C35.4974 5 36.4099 5.35119 37.0826 5.97631C37.7554 6.60143 38.1333 7.44928 38.1333 8.33333V31.6667C38.1333 32.5507 37.7554 33.3986 37.0826 34.0237C36.4099 34.6488 35.4974 35 34.546 35H9.43493C8.48352 35 7.57107 34.6488 6.89832 34.0237C6.22557 33.3986 5.84763 32.5507 5.84763 31.6667V8.33333C5.84763 7.44928 6.22557 6.60143 6.89832 5.97631C7.57107 5.35119 8.48352 5 9.43493 5H34.546ZM33.6492 30.8333V22C33.6492 20.559 33.0332 19.177 31.9366 18.1581C30.84 17.1391 29.3527 16.5667 27.8019 16.5667C26.2773 16.5667 24.5016 17.4333 23.6406 18.7333V16.8833H18.6364V30.8333H23.6406V22.6167C23.6406 21.3333 24.7527 20.2833 26.1338 20.2833C26.7998 20.2833 27.4385 20.5292 27.9094 20.9668C28.3804 21.4043 28.6449 21.9978 28.6449 22.6167V30.8333H33.6492ZM12.807 14.2667C13.6062 14.2667 14.3726 13.9717 14.9377 13.4466C15.5028 12.9215 15.8203 12.2093 15.8203 11.4667C15.8203 9.91667 14.4751 8.65 12.807 8.65C12.003 8.65 11.232 8.94675 10.6636 9.47498C10.0951 10.0032 9.77572 10.7196 9.77572 11.4667C9.77572 13.0167 11.1389 14.2667 12.807 14.2667ZM15.3002 30.8333V16.8833H10.3318V30.8333H15.3002Z" fill="#E7EBC5"/>
</svg>
