<svg width="546" height="65" viewBox="0 0 546 65" fill="none" xmlns="http://www.w3.org/2000/svg">
<path d="M395.798 33.9085C389.186 35.7555 399.82 39.571 408.238 35.9645C406.859 35.429 405.87 34.81 405.87 34.81C402.116 35.5195 400.375 35.5755 396.968 35.1865C394.155 34.8645 395.798 33.9085 395.798 33.9085ZM407.23 30.305C402.255 31.2625 399.381 31.232 395.74 30.8565C392.926 30.5655 394.768 29.201 394.768 29.201C387.487 31.618 398.821 34.36 408.998 31.3835C407.917 31.003 407.23 30.305 407.23 30.305ZM411.129 9.43951C411.129 9.43951 396.41 13.115 403.439 21.2155C405.515 23.6045 402.895 25.7525 402.895 25.7525C402.895 25.7525 408.162 23.034 405.743 19.6285C403.484 16.454 401.752 14.8775 411.129 9.43951ZM387.74 40.6525C404.902 43.434 419.024 39.3995 414.573 37.391C414.573 37.391 415.789 38.3935 413.234 39.1685C408.376 40.64 393.012 41.084 388.744 39.227C387.211 38.5595 390.088 37.6335 390.992 37.439C391.936 37.2345 392.475 37.272 392.475 37.272C390.769 36.07 381.447 39.631 387.74 40.6525ZM408.674 26.9425C409.499 26.3795 410.639 25.8905 410.639 25.8905C410.639 25.8905 407.393 26.471 404.159 26.7425C400.2 27.0745 395.953 27.14 393.821 26.855C388.773 26.18 396.588 24.3235 396.588 24.3235C396.588 24.3235 393.553 24.118 389.821 25.923C385.408 28.0575 400.737 29.03 408.674 26.9425ZM410.607 32.1585C410.57 32.2585 410.446 32.371 410.446 32.371C421.219 29.539 417.258 22.3885 412.107 24.1985C411.655 24.358 411.418 24.73 411.418 24.73C411.418 24.73 411.703 24.615 412.34 24.482C414.944 23.94 418.675 27.968 410.607 32.1585ZM401.503 24.246C399.914 20.653 394.525 17.5105 401.506 11.997C410.211 5.12601 405.744 0.656006 405.744 0.656006C407.546 7.75451 399.388 9.89901 396.444 14.32C394.439 17.332 397.428 20.5695 401.503 24.246ZM410.898 42.0715C404.289 43.3155 396.136 43.171 391.303 42.373C391.303 42.373 392.293 43.193 397.381 43.52C405.123 44.015 417.016 43.2445 417.297 39.581C417.297 39.5805 416.756 40.969 410.898 42.0715ZM394.566 49.7675C393.122 49.7675 391.89 50.1245 390.862 50.5785L391.174 51.825C391.983 51.5275 392.983 51.2515 394.011 51.2515C395.436 51.2515 396 51.825 396 53.012V54H395.4C391.94 54 390.378 55.2925 390.378 57.312C390.378 59.0515 391.408 60.0155 393.345 60.0155C394.59 60.0155 395.52 59.593 396.389 58.8405L396.547 60H398V52.754C398 50.9545 397.038 49.7675 394.566 49.7675ZM396 57.5185C395.5 58.1515 394.554 58.5075 393.861 58.5075C392.874 58.5075 392.367 57.822 392.367 56.8725C392.367 55.8445 392.968 55 395.264 55H396V57.5185ZM403.806 57.8405L403.388 56.0365L401.51 50H399.315L402.341 60H404.854C406.296 56.5 407.325 53 407.897 50H405.761C405.426 52.5 404.753 55.212 403.806 57.8405ZM413.008 49.7675C411.563 49.7675 410.302 50.1245 409.274 50.5785L409.572 51.825C410.383 51.5275 411.433 51.2515 412.461 51.2515C413.884 51.2515 414.5 51.825 414.5 53.012V54H413.786C410.325 54 408.764 55.2925 408.764 57.312C408.764 59.0515 409.792 60.0155 411.729 60.0155C412.975 60.0155 413.903 59.593 414.774 58.8405L414.933 60H416.5V52.754C416.5 50.9545 415.478 49.7675 413.008 49.7675ZM412.302 58.4985C411.315 58.4985 410.779 57.817 410.779 56.868C410.779 55.8405 411.354 55 413.647 55H414.5V57.5H414.467C413.734 58 412.993 58.4985 412.302 58.4985ZM387 57.6865C387 59.322 386.778 60.0055 386.511 60.537C386.203 61.1335 385.484 61.7745 384.71 62.1715L385.677 63.344C386.693 62.9695 387.649 62.305 388.223 61.4655C388.798 60.604 389 59.72 389 57.532V46.5H387V57.6865Z" fill="white"/>
<path d="M18.698 28.218H16.176L14.802 35.28H17.042C18.52 35.28 19.624 35 20.354 34.438C21.072 33.886 21.562 32.948 21.812 31.646C22.06 30.396 21.946 29.51 21.49 28.99C21.02 28.48 20.092 28.218 18.698 28.218ZM32 16.168C14.322 16.168 0 23.71 0 33C0 42.29 14.322 49.832 32 49.832C49.678 49.832 64 42.29 64 33C64 23.71 49.678 16.168 32 16.168ZM23.302 36.042C22.6096 36.7074 21.7764 37.2085 20.864 37.508C19.968 37.79 18.824 37.946 17.438 37.946H14.28L13.416 42.426H9.738L13.02 25.562H20.082C22.208 25.562 23.76 26.114 24.738 27.228C25.708 28.342 26.01 29.906 25.612 31.906C25.4631 32.698 25.1897 33.4615 24.802 34.168C24.4031 34.8678 23.8962 35.5003 23.3 36.042H23.302ZM34.042 37.946L35.49 30.48C35.656 29.634 35.594 29.054 35.3 28.738C35.02 28.436 34.404 28.28 33.468 28.28H30.562L28.688 37.946H25.032L28.312 21.072H31.958L31.084 25.562H34.334C36.388 25.562 37.792 25.916 38.564 26.624C39.346 27.344 39.574 28.498 39.274 30.094L37.74 37.948L34.042 37.946ZM54.29 31.906C54.1456 32.6992 53.872 33.4634 53.48 34.168C53.0848 34.867 52.582 35.4995 51.99 36.042C51.2914 36.7043 50.4556 37.2048 49.542 37.508C48.646 37.79 47.5 37.946 46.116 37.946H42.97L42.096 42.426H38.418L41.7 25.562H48.762C50.888 25.562 52.44 26.114 53.418 27.24C54.388 28.344 54.688 29.906 54.29 31.906ZM47.376 28.218H44.864L43.49 35.28H45.72C47.208 35.28 48.312 35 49.032 34.438C49.76 33.886 50.25 32.948 50.502 31.646C50.75 30.396 50.636 29.51 50.166 28.99C49.71 28.48 48.772 28.218 47.376 28.218Z" fill="white"/>
<path d="M124 1.5V64H186.5V1.5H124ZM157.06 54.7565C156.137 56.631 154.376 57.8625 152.336 58.457C149.2 59.177 146.201 58.7665 143.97 57.4275C142.477 56.5115 141.311 55.1015 140.52 53.477L145.279 50.562C145.321 50.5795 145.446 50.8055 145.613 51.0975C146.22 52.1145 146.743 52.8345 147.772 53.34C148.783 53.685 151.003 53.9055 151.86 52.1265C152.384 51.2215 152.217 48.3125 152.217 45.094C152.216 40.0365 152.24 35 152.24 30H158.095C158.095 35.5 158.125 40.709 158.095 46.076C158.107 49.366 158.393 52.299 157.06 54.7565ZM181.347 53.1025C179.312 60.0635 167.965 60.2895 163.431 55.6905C162.473 54.608 161.873 54.0425 161.301 52.793C163.711 51.407 163.711 51.407 166.056 50.0505C167.329 52.008 168.507 53.0845 170.625 53.525C173.499 53.876 176.39 52.8885 175.742 49.836C175.076 47.343 169.857 46.7365 166.306 44.0705C162.7 41.649 161.855 35.765 164.818 32.403C165.806 31.1595 167.49 30.2315 169.257 29.7855L171.1 29.547C174.641 29.4755 176.854 30.4105 178.479 32.2245C178.931 32.6825 179.299 33.1765 179.989 34.247C178.103 35.449 178.11 35.4375 175.408 37.1865C174.831 35.9435 173.874 35.1635 172.861 34.8245C171.291 34.3485 169.309 34.866 168.898 36.526C168.756 37.0375 168.785 37.5135 169.012 38.3585C169.649 39.81 171.785 40.441 173.701 41.3215C179.216 43.5585 181.078 45.957 181.536 48.812C181.978 51.27 181.43 52.8645 181.347 53.1025Z" fill="white"/>
<path d="M278 27.96C280.747 27.96 282.987 30.2 282.987 33C282.987 35.6667 280.747 37.9333 278 37.9333C275.253 37.9333 273.013 35.6667 273.013 33C273.013 30.2 275.253 27.96 278 27.96ZM265.653 54.3333C267.333 55.3467 271.013 53.8 275.253 49.8C273.867 48.2267 272.507 46.52 271.227 44.7333C269.078 44.5277 266.941 44.2072 264.827 43.7733C263.467 49.48 263.973 53.4 265.653 54.3333ZM267.547 39.0267L266.773 37.6667C266.48 38.44 266.187 39.2133 266 39.96C266.72 40.12 267.52 40.2533 268.347 40.3867L267.547 39.0267ZM284.987 37L287.147 33L284.987 29C284.187 27.5867 283.333 26.3333 282.56 25.08C281.12 25 279.6 25 278 25C276.4 25 274.88 25 273.44 25.08C272.667 26.3333 271.813 27.5867 271.013 29L268.853 33L271.013 37C271.813 38.4133 272.667 39.6667 273.44 40.92C274.88 41 276.4 41 278 41C279.6 41 281.12 41 282.56 40.92C283.333 39.6667 284.187 38.4133 284.987 37ZM278 19.08C277.493 19.6667 276.96 20.28 276.427 21H279.573C279.04 20.28 278.507 19.6667 278 19.08ZM278 46.92C278.507 46.3333 279.04 45.72 279.573 45H276.427C276.96 45.72 277.493 46.3333 278 46.92ZM290.32 11.6667C288.667 10.6533 284.987 12.2 280.747 16.2C282.133 17.7733 283.493 19.48 284.773 21.2667C286.96 21.48 289.12 21.8 291.173 22.2267C292.533 16.52 292.027 12.6 290.32 11.6667ZM288.453 26.9733L289.227 28.3333C289.52 27.56 289.813 26.7867 290 26.04C289.28 25.88 288.48 25.7467 287.653 25.6133L288.453 26.9733ZM292.32 8.17334C296.24 10.4133 296.667 16.3067 295.013 23.1867C301.787 25.1867 306.667 28.4933 306.667 33C306.667 37.5067 301.787 40.8133 295.013 42.8133C296.667 49.6933 296.24 55.5867 292.32 57.8267C288.427 60.0667 283.12 57.5067 278 52.6267C272.88 57.5067 267.573 60.0667 263.653 57.8267C259.76 55.5867 259.333 49.6933 260.987 42.8133C254.213 40.8133 249.333 37.5067 249.333 33C249.333 28.4933 254.213 25.1867 260.987 23.1867C259.333 16.3067 259.76 10.4133 263.653 8.17334C267.573 5.93334 272.88 8.49334 278 13.3733C283.12 8.49334 288.427 5.93334 292.32 8.17334ZM291.547 33C292.453 35 293.253 37 293.92 39.0267C299.52 37.3467 302.667 34.9467 302.667 33C302.667 31.0533 299.52 28.6533 293.92 26.9733C293.253 29 292.453 31 291.547 33ZM264.453 33C263.547 31 262.747 29 262.08 26.9733C256.48 28.6533 253.333 31.0533 253.333 33C253.333 34.9467 256.48 37.3467 262.08 39.0267C262.747 37 263.547 35 264.453 33ZM288.453 39.0267L287.653 40.3867C288.48 40.2533 289.28 40.12 290 39.96C289.813 39.2133 289.52 38.44 289.227 37.6667L288.453 39.0267ZM280.747 49.8C284.987 53.8 288.667 55.3467 290.32 54.3333C292.027 53.4 292.533 49.48 291.173 43.7733C289.12 44.2 286.96 44.52 284.773 44.7333C283.493 46.52 282.133 48.2267 280.747 49.8ZM267.547 26.9733L268.347 25.6133C267.52 25.7467 266.72 25.88 266 26.04C266.187 26.7867 266.48 27.56 266.773 28.3333L267.547 26.9733ZM275.253 16.2C271.013 12.2 267.333 10.6533 265.653 11.6667C263.973 12.6 263.467 16.52 264.827 22.2267C266.941 21.7928 269.078 21.4723 271.227 21.2667C272.507 19.48 273.867 17.7733 275.253 16.2Z" fill="white"/>
<g clip-path="url(#clip0_233_47)">
<path d="M518.107 17.1717C518.23 17.2332 518.328 17.3809 518.475 17.3809C518.61 17.3809 518.819 17.3316 518.831 17.1963C518.856 17.024 518.598 16.9133 518.439 16.8395C518.23 16.7533 517.96 16.7164 517.763 16.8272C517.714 16.8518 517.665 16.9133 517.69 16.9625C517.727 17.1225 517.972 17.0979 518.107 17.1717ZM515.419 17.3809C515.566 17.3809 515.664 17.2332 515.787 17.1717C515.922 17.0979 516.167 17.1225 516.217 16.9748C516.241 16.9256 516.192 16.8641 516.143 16.8395C515.946 16.7287 515.676 16.7656 515.468 16.8518C515.308 16.9256 515.05 17.0363 515.075 17.2086C515.087 17.3316 515.296 17.3932 515.419 17.3809ZM542.562 51.6863C542.121 51.1941 541.912 50.259 541.679 49.2623C541.458 48.2656 541.2 47.1951 540.39 46.5061C540.23 46.3707 540.07 46.2477 539.898 46.1492C539.739 46.0508 539.567 45.9646 539.395 45.9031C540.525 42.5439 540.083 39.1971 538.941 36.1701C537.541 32.4664 535.098 29.2303 533.232 27.0154C531.133 24.3699 529.095 21.8598 529.132 18.1561C529.193 12.5082 529.758 2.01231 519.826 2.00001C507.254 1.9754 510.397 14.7231 510.262 18.6359C510.054 21.5152 509.477 23.7793 507.5 26.5971C505.18 29.3656 501.914 33.8322 500.367 38.4957C499.631 40.6982 499.287 42.9377 499.606 45.0541C498.808 45.7678 498.206 46.8629 497.568 47.5397C497.052 48.0688 496.304 48.2656 495.481 48.5609C494.658 48.8563 493.762 49.2992 493.21 50.3451C492.952 50.825 492.866 51.3418 492.866 51.8709C492.866 52.3508 492.94 52.843 493.013 53.3229C493.161 54.3195 493.32 55.2547 493.112 55.8822C492.473 57.6541 492.387 58.8846 492.842 59.7828C493.308 60.6811 494.241 61.0748 495.309 61.2963C497.433 61.7393 500.318 61.6285 502.589 62.8344C505.02 64.1141 507.488 64.5693 509.452 64.1141C510.876 63.7941 512.042 62.9328 512.632 61.6285C514.166 61.6162 515.86 60.9641 518.561 60.8164C520.391 60.6688 522.686 61.4686 525.326 61.3209C525.4 61.6039 525.498 61.8869 525.633 62.1453V62.1576C526.652 64.2125 528.555 65.1477 530.58 64.9877C532.618 64.8277 534.767 63.6342 536.51 61.5547C538.18 59.5367 540.93 58.7 542.759 57.5926C543.667 57.0389 544.404 56.3498 544.465 55.3408C544.515 54.3318 543.925 53.2121 542.562 51.6863ZM518.463 12.742C519.666 10.0104 522.662 10.0596 523.865 12.6928C524.663 14.44 524.307 16.4949 523.337 17.6639C523.141 17.5654 522.613 17.344 521.79 17.0609C521.925 16.9133 522.171 16.7287 522.269 16.4949C522.858 15.043 522.244 13.1727 521.152 13.1357C520.256 13.0742 519.445 14.4647 519.703 15.9658C519.2 15.7197 518.549 15.5352 518.107 15.4244C517.984 14.5754 518.07 13.6279 518.463 12.742ZM513.467 11.327C514.706 11.327 516.02 13.0742 515.811 15.449C515.382 15.5721 514.94 15.7566 514.559 16.015C514.706 14.9199 514.154 13.5418 513.381 13.6033C512.349 13.6895 512.177 16.2119 513.16 17.0609C513.282 17.1594 513.393 17.0363 512.435 17.7377C510.52 15.9412 511.146 11.327 513.467 11.327ZM511.797 18.7959C512.558 18.2299 513.467 17.5654 513.528 17.5039C514.105 16.9625 515.185 15.7566 516.953 15.7566C517.825 15.7566 518.868 16.0397 520.133 16.8518C520.906 17.3563 521.52 17.3932 522.907 17.9961C523.939 18.4268 524.589 19.1897 524.196 20.2356C523.877 21.1092 522.846 22.0074 521.41 22.4627C520.047 22.9057 518.979 24.4314 516.72 24.2961C516.241 24.2715 515.86 24.1731 515.541 24.0377C514.559 23.607 514.044 22.758 513.086 22.192C512.03 21.6014 511.465 20.9123 511.281 20.3094C511.109 19.7065 511.281 19.202 511.797 18.7959ZM512.202 59.8936C511.871 64.2125 506.812 64.1264 502.958 62.1084C499.287 60.1643 494.536 61.3086 493.566 59.4137C493.271 58.8354 493.271 57.851 493.885 56.1652V56.1406C494.18 55.2055 493.959 54.1719 493.811 53.1998C493.664 52.24 493.59 51.3541 493.922 50.7389C494.352 49.9145 494.965 49.6191 495.739 49.3484C497.003 48.8932 497.187 48.9301 498.145 48.1303C498.82 47.4289 499.311 46.543 499.901 45.9154C500.527 45.2387 501.128 44.9188 502.074 45.0664C503.068 45.2141 503.927 45.9031 504.762 47.0352L507.169 51.4156C508.335 53.8643 512.46 57.3711 512.202 59.8936ZM512.03 56.7066C511.527 55.8945 510.852 55.0332 510.262 54.2949C511.134 54.2949 512.006 54.0242 512.312 53.1998C512.595 52.4369 512.312 51.3664 511.404 50.1359C509.747 47.8965 506.702 46.1369 506.702 46.1369C505.045 45.1033 504.112 43.8359 503.682 42.4578C503.252 41.0797 503.314 39.5908 503.645 38.1266C504.283 35.3088 505.929 32.5648 506.984 30.8422C507.267 30.633 507.083 31.2359 505.916 33.4016C504.873 35.3826 502.921 39.96 505.597 43.5406C505.671 40.9936 506.272 38.3973 507.291 35.9732C508.765 32.6018 511.871 26.757 512.116 22.1059C512.251 22.2043 512.681 22.4996 512.877 22.6104C513.442 22.9426 513.872 23.4348 514.424 23.8777C515.946 25.1082 517.923 25.0098 519.629 24.0254C520.391 23.5947 521.004 23.1025 521.581 22.918C522.797 22.5365 523.767 21.8598 524.319 21.0723C525.265 24.8129 527.474 30.2147 528.886 32.8479C529.635 34.2506 531.133 37.216 531.783 40.7967C532.189 40.7844 532.643 40.8459 533.122 40.9689C534.816 36.5762 531.685 31.8389 530.261 30.5223C529.684 29.9563 529.66 29.7102 529.942 29.7225C531.489 31.1006 533.527 33.8691 534.263 36.9822C534.607 38.4096 534.669 39.8984 534.312 41.375C536.326 42.2117 538.72 43.5775 538.081 45.657C537.811 45.6447 537.689 45.657 537.566 45.657C537.959 44.4143 537.087 43.4914 534.767 42.4455C532.36 41.3873 530.347 41.3873 530.065 43.9836C528.579 44.5004 527.818 45.7924 527.437 47.3428C527.094 48.7209 526.996 50.382 526.897 52.2523C526.836 53.1998 526.455 54.4672 526.062 55.8207C522.122 58.6385 516.646 59.8689 512.03 56.7066ZM543.631 55.2916C543.52 57.3588 538.573 57.7402 535.872 61.0133C534.251 62.9451 532.262 64.0156 530.519 64.151C528.776 64.2863 527.266 63.5604 526.382 61.7762C525.805 60.4104 526.087 58.9338 526.517 57.3096C526.971 55.5623 527.646 53.7658 527.732 52.3139C527.83 50.4436 527.941 48.807 528.248 47.552C528.567 46.2846 529.058 45.4356 529.93 44.9557C529.967 44.9311 530.016 44.9188 530.052 44.8941C530.151 46.5184 530.949 48.1672 532.36 48.524C533.907 48.9301 536.129 47.6012 537.075 46.5184C538.18 46.4814 539.002 46.4076 539.849 47.1459C541.065 48.1918 540.721 50.8742 541.949 52.2647C543.25 53.692 543.667 54.6641 543.631 55.2916ZM512.276 20.2971C512.521 20.5309 512.853 20.8508 513.258 21.1707C514.068 21.8106 515.198 22.475 516.609 22.475C518.033 22.475 519.372 21.749 520.513 21.1461C521.115 20.8262 521.852 20.2848 522.33 19.8664C522.809 19.4481 523.055 19.0912 522.711 19.0543C522.367 19.0174 522.392 19.3742 521.974 19.6818C521.434 20.0756 520.783 20.5924 520.268 20.8877C519.359 21.4045 517.874 22.1428 516.597 22.1428C515.32 22.1428 514.301 21.5522 513.54 20.9492C513.16 20.6416 512.84 20.334 512.595 20.1002C512.411 19.9279 512.362 19.5342 512.067 19.4973C511.895 19.485 511.846 19.9525 512.276 20.2971Z" fill="white"/>
</g>
<defs>
<clipPath id="clip0_233_47">
<rect width="55" height="63" fill="white" transform="translate(491 2)"/>
</clipPath>
</defs>
</svg>
