<svg width="45" height="40" viewBox="0 0 45 40" fill="none" xmlns="http://www.w3.org/2000/svg">
<path d="M22.5048 3.33337C20.1493 3.33337 17.8169 3.76447 15.6408 4.60205C13.4646 5.43963 11.4873 6.66728 9.82173 8.21493C6.45799 11.3405 4.56825 15.5798 4.56825 20C4.56825 27.3667 9.71603 33.6167 16.8368 35.8334C17.7336 35.9667 18.0206 35.45 18.0206 35V32.1834C13.0522 33.1834 11.994 29.95 11.994 29.95C11.1689 28.0167 10.003 27.5 10.003 27.5C8.37079 26.4667 10.1286 26.5 10.1286 26.5C11.9222 26.6167 12.8729 28.2167 12.8729 28.2167C14.4333 30.75 17.07 30 18.0924 29.6C18.2538 28.5167 18.7202 27.7834 19.2224 27.3667C15.2405 26.95 11.0613 25.5167 11.0613 19.1667C11.0613 17.3167 11.7429 15.8334 12.9087 14.65C12.7294 14.2334 12.1016 12.5 13.0881 10.25C13.0881 10.25 14.5948 9.80004 18.0206 11.95C19.4376 11.5834 20.9802 11.4 22.5048 11.4C24.0294 11.4 25.5719 11.5834 26.9889 11.95C30.4148 9.80004 31.9214 10.25 31.9214 10.25C32.9079 12.5 32.2802 14.2334 32.1008 14.65C33.2667 15.8334 33.9482 17.3167 33.9482 19.1667C33.9482 25.5334 29.7511 26.9334 25.7513 27.35C26.397 27.8667 26.9889 28.8834 26.9889 30.4334V35C26.9889 35.45 27.2759 35.9834 28.1906 35.8334C35.3114 33.6 40.4413 27.3667 40.4413 20C40.4413 17.8113 39.9773 15.6441 39.0759 13.622C38.1745 11.5999 36.8533 9.76257 35.1878 8.21493C33.5222 6.66728 31.5449 5.43963 29.3688 4.60205C27.1926 3.76447 24.8602 3.33337 22.5048 3.33337Z" fill="#E7EBC5"/>
</svg>
