<svg width="668" height="65" viewBox="0 0 668 65" fill="none" xmlns="http://www.w3.org/2000/svg">
<path d="M370 32.955V64.205H432.5V1.70499H370V32.955ZM420.365 30.455C421.862 30.8024 423.222 31.5853 424.275 32.705C424.854 33.3082 425.358 33.9798 425.775 34.705C425.775 34.785 423.075 36.61 421.43 37.63C421.37 37.67 421.13 37.41 420.865 37.015C420.565 36.4968 420.138 36.0632 419.625 35.7545C419.112 35.4459 418.528 35.2723 417.93 35.25C416.035 35.12 414.815 36.115 414.825 37.75C414.809 38.1571 414.903 38.5609 415.095 38.92C415.51 39.785 416.285 40.3 418.715 41.35C423.19 43.275 425.105 44.545 426.295 46.35C427.625 48.35 427.92 51.58 427.02 53.97C426.02 56.57 423.57 58.335 420.105 58.92C418.522 59.1012 416.923 59.0845 415.345 58.87C412.936 58.4792 410.714 57.3322 409 55.595C408.425 54.96 407.305 53.305 407.375 53.185C407.558 53.0495 407.75 52.9275 407.95 52.82L410.25 51.5L412.045 50.46L412.42 51.015C413.053 51.9203 413.858 52.6917 414.79 53.285C416.79 54.335 419.52 54.19 420.87 52.975C421.323 52.5298 421.606 51.9397 421.669 51.3075C421.732 50.6752 421.571 50.0409 421.215 49.515C420.715 48.82 419.715 48.235 416.92 47.015C413.695 45.625 412.305 44.765 411.035 43.395C410.242 42.4909 409.657 41.4243 409.32 40.27C409.069 38.9512 409.032 37.6006 409.21 36.27C409.875 33.155 412.21 30.98 415.62 30.335C417.199 30.1396 418.799 30.1834 420.365 30.465V30.455ZM405.695 33.075V35.635H397.58V58.75H391.825V35.63H383.69V33.13C383.668 32.2694 383.692 31.4082 383.76 30.55C383.79 30.51 388.76 30.49 394.76 30.5H405.665L405.695 33.075Z" fill="white"/>
<path d="M517.798 33.9085C511.186 35.7555 521.82 39.571 530.238 35.9645C528.859 35.429 527.87 34.81 527.87 34.81C524.116 35.5195 522.375 35.5755 518.968 35.1865C516.155 34.8645 517.798 33.9085 517.798 33.9085ZM529.23 30.305C524.255 31.2625 521.381 31.232 517.74 30.8565C514.926 30.5655 516.768 29.201 516.768 29.201C509.487 31.618 520.821 34.36 530.998 31.3835C529.917 31.003 529.23 30.305 529.23 30.305ZM533.129 9.43951C533.129 9.43951 518.41 13.115 525.439 21.2155C527.515 23.6045 524.895 25.7525 524.895 25.7525C524.895 25.7525 530.162 23.034 527.743 19.6285C525.484 16.454 523.752 14.8775 533.129 9.43951ZM509.74 40.6525C526.902 43.434 541.024 39.3995 536.573 37.391C536.573 37.391 537.789 38.3935 535.234 39.1685C530.376 40.64 515.012 41.084 510.744 39.227C509.211 38.5595 512.088 37.6335 512.992 37.439C513.936 37.2345 514.475 37.272 514.475 37.272C512.769 36.07 503.447 39.631 509.74 40.6525ZM530.674 26.9425C531.499 26.3795 532.639 25.8905 532.639 25.8905C532.639 25.8905 529.393 26.471 526.159 26.7425C522.2 27.0745 517.953 27.14 515.821 26.855C510.773 26.18 518.588 24.3235 518.588 24.3235C518.588 24.3235 515.553 24.118 511.821 25.923C507.408 28.0575 522.737 29.03 530.674 26.9425ZM532.607 32.1585C532.57 32.2585 532.446 32.371 532.446 32.371C543.219 29.539 539.258 22.3885 534.107 24.1985C533.655 24.358 533.418 24.73 533.418 24.73C533.418 24.73 533.703 24.615 534.34 24.482C536.944 23.94 540.675 27.968 532.607 32.1585ZM523.503 24.246C521.914 20.653 516.525 17.5105 523.506 11.997C532.211 5.12601 527.744 0.656006 527.744 0.656006C529.546 7.75451 521.388 9.89901 518.444 14.32C516.439 17.332 519.428 20.5695 523.503 24.246ZM532.898 42.0715C526.289 43.3155 518.136 43.171 513.303 42.373C513.303 42.373 514.293 43.193 519.381 43.52C527.123 44.015 539.016 43.2445 539.297 39.581C539.297 39.5805 538.756 40.969 532.898 42.0715ZM516.566 49.7675C515.122 49.7675 513.89 50.1245 512.862 50.5785L513.174 51.825C513.983 51.5275 514.983 51.2515 516.011 51.2515C517.436 51.2515 518 51.825 518 53.012V54H517.4C513.94 54 512.378 55.2925 512.378 57.312C512.378 59.0515 513.408 60.0155 515.345 60.0155C516.59 60.0155 517.52 59.593 518.389 58.8405L518.547 60H520V52.754C520 50.9545 519.038 49.7675 516.566 49.7675ZM518 57.5185C517.5 58.1515 516.554 58.5075 515.861 58.5075C514.874 58.5075 514.367 57.822 514.367 56.8725C514.367 55.8445 514.968 55 517.264 55H518V57.5185ZM525.806 57.8405L525.388 56.0365L523.51 50H521.315L524.341 60H526.854C528.296 56.5 529.325 53 529.897 50H527.761C527.426 52.5 526.753 55.212 525.806 57.8405ZM535.008 49.7675C533.563 49.7675 532.302 50.1245 531.274 50.5785L531.572 51.825C532.383 51.5275 533.433 51.2515 534.461 51.2515C535.884 51.2515 536.5 51.825 536.5 53.012V54H535.786C532.325 54 530.764 55.2925 530.764 57.312C530.764 59.0515 531.792 60.0155 533.729 60.0155C534.975 60.0155 535.903 59.593 536.774 58.8405L536.933 60H538.5V52.754C538.5 50.9545 537.478 49.7675 535.008 49.7675ZM534.302 58.4985C533.315 58.4985 532.779 57.817 532.779 56.868C532.779 55.8405 533.354 55 535.647 55H536.5V57.5H536.467C535.734 58 534.993 58.4985 534.302 58.4985ZM509 57.6865C509 59.322 508.778 60.0055 508.511 60.537C508.203 61.1335 507.484 61.7745 506.71 62.1715L507.677 63.344C508.693 62.9695 509.649 62.305 510.223 61.4655C510.798 60.604 511 59.72 511 57.532V46.5H509V57.6865Z" fill="white"/>
<path d="M18.698 28.218H16.176L14.802 35.28H17.042C18.52 35.28 19.624 35 20.354 34.438C21.072 33.886 21.562 32.948 21.812 31.646C22.06 30.396 21.946 29.51 21.49 28.99C21.02 28.48 20.092 28.218 18.698 28.218ZM32 16.168C14.322 16.168 0 23.71 0 33C0 42.29 14.322 49.832 32 49.832C49.678 49.832 64 42.29 64 33C64 23.71 49.678 16.168 32 16.168ZM23.302 36.042C22.6096 36.7074 21.7764 37.2085 20.864 37.508C19.968 37.79 18.824 37.946 17.438 37.946H14.28L13.416 42.426H9.738L13.02 25.562H20.082C22.208 25.562 23.76 26.114 24.738 27.228C25.708 28.342 26.01 29.906 25.612 31.906C25.4631 32.698 25.1897 33.4615 24.802 34.168C24.4031 34.8678 23.8962 35.5003 23.3 36.042H23.302ZM34.042 37.946L35.49 30.48C35.656 29.634 35.594 29.054 35.3 28.738C35.02 28.436 34.404 28.28 33.468 28.28H30.562L28.688 37.946H25.032L28.312 21.072H31.958L31.084 25.562H34.334C36.388 25.562 37.792 25.916 38.564 26.624C39.346 27.344 39.574 28.498 39.274 30.094L37.74 37.948L34.042 37.946ZM54.29 31.906C54.1456 32.6992 53.872 33.4634 53.48 34.168C53.0848 34.867 52.582 35.4995 51.99 36.042C51.2914 36.7043 50.4556 37.2048 49.542 37.508C48.646 37.79 47.5 37.946 46.116 37.946H42.97L42.096 42.426H38.418L41.7 25.562H48.762C50.888 25.562 52.44 26.114 53.418 27.24C54.388 28.344 54.688 29.906 54.29 31.906ZM47.376 28.218H44.864L43.49 35.28H45.72C47.208 35.28 48.312 35 49.032 34.438C49.76 33.886 50.25 32.948 50.502 31.646C50.75 30.396 50.636 29.51 50.166 28.99C49.71 28.48 48.772 28.218 47.376 28.218Z" fill="white"/>
<path d="M124 1.5V64H186.5V1.5H124ZM157.06 54.7565C156.137 56.631 154.376 57.8625 152.336 58.457C149.2 59.177 146.201 58.7665 143.97 57.4275C142.477 56.5115 141.311 55.1015 140.52 53.477L145.279 50.562C145.321 50.5795 145.446 50.8055 145.613 51.0975C146.22 52.1145 146.743 52.8345 147.772 53.34C148.783 53.685 151.003 53.9055 151.86 52.1265C152.384 51.2215 152.217 48.3125 152.217 45.094C152.216 40.0365 152.24 35 152.24 30H158.095C158.095 35.5 158.125 40.709 158.095 46.076C158.107 49.366 158.393 52.299 157.06 54.7565ZM181.347 53.1025C179.312 60.0635 167.965 60.2895 163.431 55.6905C162.473 54.608 161.873 54.0425 161.301 52.793C163.711 51.407 163.711 51.407 166.056 50.0505C167.329 52.008 168.507 53.0845 170.625 53.525C173.499 53.876 176.39 52.8885 175.742 49.836C175.076 47.343 169.857 46.7365 166.306 44.0705C162.7 41.649 161.855 35.765 164.818 32.403C165.806 31.1595 167.49 30.2315 169.257 29.7855L171.1 29.547C174.641 29.4755 176.854 30.4105 178.479 32.2245C178.931 32.6825 179.299 33.1765 179.989 34.247C178.103 35.449 178.11 35.4375 175.408 37.1865C174.831 35.9435 173.874 35.1635 172.861 34.8245C171.291 34.3485 169.309 34.866 168.898 36.526C168.756 37.0375 168.785 37.5135 169.012 38.3585C169.649 39.81 171.785 40.441 173.701 41.3215C179.216 43.5585 181.078 45.957 181.536 48.812C181.978 51.27 181.43 52.8645 181.347 53.1025Z" fill="white"/>
<path d="M278 27.96C280.747 27.96 282.987 30.2 282.987 33C282.987 35.6667 280.747 37.9333 278 37.9333C275.253 37.9333 273.013 35.6667 273.013 33C273.013 30.2 275.253 27.96 278 27.96ZM265.653 54.3333C267.333 55.3467 271.013 53.8 275.253 49.8C273.867 48.2267 272.507 46.52 271.227 44.7333C269.078 44.5277 266.941 44.2072 264.827 43.7733C263.467 49.48 263.973 53.4 265.653 54.3333ZM267.547 39.0267L266.773 37.6667C266.48 38.44 266.187 39.2133 266 39.96C266.72 40.12 267.52 40.2533 268.347 40.3867L267.547 39.0267ZM284.987 37L287.147 33L284.987 29C284.187 27.5867 283.333 26.3333 282.56 25.08C281.12 25 279.6 25 278 25C276.4 25 274.88 25 273.44 25.08C272.667 26.3333 271.813 27.5867 271.013 29L268.853 33L271.013 37C271.813 38.4133 272.667 39.6667 273.44 40.92C274.88 41 276.4 41 278 41C279.6 41 281.12 41 282.56 40.92C283.333 39.6667 284.187 38.4133 284.987 37ZM278 19.08C277.493 19.6667 276.96 20.28 276.427 21H279.573C279.04 20.28 278.507 19.6667 278 19.08ZM278 46.92C278.507 46.3333 279.04 45.72 279.573 45H276.427C276.96 45.72 277.493 46.3333 278 46.92ZM290.32 11.6667C288.667 10.6533 284.987 12.2 280.747 16.2C282.133 17.7733 283.493 19.48 284.773 21.2667C286.96 21.48 289.12 21.8 291.173 22.2267C292.533 16.52 292.027 12.6 290.32 11.6667ZM288.453 26.9733L289.227 28.3333C289.52 27.56 289.813 26.7867 290 26.04C289.28 25.88 288.48 25.7467 287.653 25.6133L288.453 26.9733ZM292.32 8.17334C296.24 10.4133 296.667 16.3067 295.013 23.1867C301.787 25.1867 306.667 28.4933 306.667 33C306.667 37.5067 301.787 40.8133 295.013 42.8133C296.667 49.6933 296.24 55.5867 292.32 57.8267C288.427 60.0667 283.12 57.5067 278 52.6267C272.88 57.5067 267.573 60.0667 263.653 57.8267C259.76 55.5867 259.333 49.6933 260.987 42.8133C254.213 40.8133 249.333 37.5067 249.333 33C249.333 28.4933 254.213 25.1867 260.987 23.1867C259.333 16.3067 259.76 10.4133 263.653 8.17334C267.573 5.93334 272.88 8.49334 278 13.3733C283.12 8.49334 288.427 5.93334 292.32 8.17334ZM291.547 33C292.453 35 293.253 37 293.92 39.0267C299.52 37.3467 302.667 34.9467 302.667 33C302.667 31.0533 299.52 28.6533 293.92 26.9733C293.253 29 292.453 31 291.547 33ZM264.453 33C263.547 31 262.747 29 262.08 26.9733C256.48 28.6533 253.333 31.0533 253.333 33C253.333 34.9467 256.48 37.3467 262.08 39.0267C262.747 37 263.547 35 264.453 33ZM288.453 39.0267L287.653 40.3867C288.48 40.2533 289.28 40.12 290 39.96C289.813 39.2133 289.52 38.44 289.227 37.6667L288.453 39.0267ZM280.747 49.8C284.987 53.8 288.667 55.3467 290.32 54.3333C292.027 53.4 292.533 49.48 291.173 43.7733C289.12 44.2 286.96 44.52 284.773 44.7333C283.493 46.52 282.133 48.2267 280.747 49.8ZM267.547 26.9733L268.347 25.6133C267.52 25.7467 266.72 25.88 266 26.04C266.187 26.7867 266.48 27.56 266.773 28.3333L267.547 26.9733ZM275.253 16.2C271.013 12.2 267.333 10.6533 265.653 11.6667C263.973 12.6 263.467 16.52 264.827 22.2267C266.941 21.7928 269.078 21.4723 271.227 21.2667C272.507 19.48 273.867 17.7733 275.253 16.2Z" fill="white"/>
<g clip-path="url(#clip0_233_47)">
<path d="M640.107 17.1717C640.23 17.2332 640.328 17.3809 640.475 17.3809C640.61 17.3809 640.819 17.3316 640.831 17.1963C640.856 17.024 640.598 16.9133 640.439 16.8395C640.23 16.7533 639.96 16.7164 639.763 16.8272C639.714 16.8518 639.665 16.9133 639.69 16.9625C639.727 17.1225 639.972 17.0979 640.107 17.1717ZM637.419 17.3809C637.566 17.3809 637.664 17.2332 637.787 17.1717C637.922 17.0979 638.167 17.1225 638.217 16.9748C638.241 16.9256 638.192 16.8641 638.143 16.8395C637.946 16.7287 637.676 16.7656 637.468 16.8518C637.308 16.9256 637.05 17.0363 637.075 17.2086C637.087 17.3316 637.296 17.3932 637.419 17.3809ZM664.562 51.6863C664.121 51.1941 663.912 50.259 663.679 49.2623C663.458 48.2656 663.2 47.1951 662.39 46.5061C662.23 46.3707 662.07 46.2477 661.898 46.1492C661.739 46.0508 661.567 45.9646 661.395 45.9031C662.525 42.5439 662.083 39.1971 660.941 36.1701C659.541 32.4664 657.098 29.2303 655.232 27.0154C653.133 24.3699 651.095 21.8598 651.132 18.1561C651.193 12.5082 651.758 2.01231 641.826 2.00001C629.254 1.9754 632.397 14.7231 632.262 18.6359C632.054 21.5152 631.477 23.7793 629.5 26.5971C627.18 29.3656 623.914 33.8322 622.367 38.4957C621.631 40.6982 621.287 42.9377 621.606 45.0541C620.808 45.7678 620.206 46.8629 619.568 47.5397C619.052 48.0688 618.304 48.2656 617.481 48.5609C616.658 48.8563 615.762 49.2992 615.21 50.3451C614.952 50.825 614.866 51.3418 614.866 51.8709C614.866 52.3508 614.94 52.843 615.013 53.3229C615.161 54.3195 615.32 55.2547 615.112 55.8822C614.473 57.6541 614.387 58.8846 614.842 59.7828C615.308 60.6811 616.241 61.0748 617.309 61.2963C619.433 61.7393 622.318 61.6285 624.589 62.8344C627.02 64.1141 629.488 64.5693 631.452 64.1141C632.876 63.7941 634.042 62.9328 634.632 61.6285C636.166 61.6162 637.86 60.9641 640.561 60.8164C642.391 60.6688 644.686 61.4686 647.326 61.3209C647.4 61.6039 647.498 61.8869 647.633 62.1453V62.1576C648.652 64.2125 650.555 65.1477 652.58 64.9877C654.618 64.8277 656.767 63.6342 658.51 61.5547C660.18 59.5367 662.93 58.7 664.759 57.5926C665.667 57.0389 666.404 56.3498 666.465 55.3408C666.515 54.3318 665.925 53.2121 664.562 51.6863ZM640.463 12.742C641.666 10.0104 644.662 10.0596 645.865 12.6928C646.663 14.44 646.307 16.4949 645.337 17.6639C645.141 17.5654 644.613 17.344 643.79 17.0609C643.925 16.9133 644.171 16.7287 644.269 16.4949C644.858 15.043 644.244 13.1727 643.152 13.1357C642.256 13.0742 641.445 14.4647 641.703 15.9658C641.2 15.7197 640.549 15.5352 640.107 15.4244C639.984 14.5754 640.07 13.6279 640.463 12.742ZM635.467 11.327C636.706 11.327 638.02 13.0742 637.811 15.449C637.382 15.5721 636.94 15.7566 636.559 16.015C636.706 14.9199 636.154 13.5418 635.381 13.6033C634.349 13.6895 634.177 16.2119 635.16 17.0609C635.282 17.1594 635.393 17.0363 634.435 17.7377C632.52 15.9412 633.146 11.327 635.467 11.327ZM633.797 18.7959C634.558 18.2299 635.467 17.5654 635.528 17.5039C636.105 16.9625 637.185 15.7566 638.953 15.7566C639.825 15.7566 640.868 16.0397 642.133 16.8518C642.906 17.3563 643.52 17.3932 644.907 17.9961C645.939 18.4268 646.589 19.1897 646.196 20.2356C645.877 21.1092 644.846 22.0074 643.41 22.4627C642.047 22.9057 640.979 24.4314 638.72 24.2961C638.241 24.2715 637.86 24.1731 637.541 24.0377C636.559 23.607 636.044 22.758 635.086 22.192C634.03 21.6014 633.465 20.9123 633.281 20.3094C633.109 19.7065 633.281 19.202 633.797 18.7959ZM634.202 59.8936C633.871 64.2125 628.812 64.1264 624.958 62.1084C621.287 60.1643 616.536 61.3086 615.566 59.4137C615.271 58.8354 615.271 57.851 615.885 56.1652V56.1406C616.18 55.2055 615.959 54.1719 615.811 53.1998C615.664 52.24 615.59 51.3541 615.922 50.7389C616.352 49.9145 616.965 49.6191 617.739 49.3484C619.003 48.8932 619.187 48.9301 620.145 48.1303C620.82 47.4289 621.311 46.543 621.901 45.9154C622.527 45.2387 623.128 44.9188 624.074 45.0664C625.068 45.2141 625.927 45.9031 626.762 47.0352L629.169 51.4156C630.335 53.8643 634.46 57.3711 634.202 59.8936ZM634.03 56.7066C633.527 55.8945 632.852 55.0332 632.262 54.2949C633.134 54.2949 634.006 54.0242 634.312 53.1998C634.595 52.4369 634.312 51.3664 633.404 50.1359C631.747 47.8965 628.702 46.1369 628.702 46.1369C627.045 45.1033 626.112 43.8359 625.682 42.4578C625.252 41.0797 625.314 39.5908 625.645 38.1266C626.283 35.3088 627.929 32.5648 628.984 30.8422C629.267 30.633 629.083 31.2359 627.916 33.4016C626.873 35.3826 624.921 39.96 627.597 43.5406C627.671 40.9936 628.272 38.3973 629.291 35.9732C630.765 32.6018 633.871 26.757 634.116 22.1059C634.251 22.2043 634.681 22.4996 634.877 22.6104C635.442 22.9426 635.872 23.4348 636.424 23.8777C637.946 25.1082 639.923 25.0098 641.629 24.0254C642.391 23.5947 643.004 23.1025 643.581 22.918C644.797 22.5365 645.767 21.8598 646.319 21.0723C647.265 24.8129 649.474 30.2147 650.886 32.8479C651.635 34.2506 653.133 37.216 653.783 40.7967C654.189 40.7844 654.643 40.8459 655.122 40.9689C656.816 36.5762 653.685 31.8389 652.261 30.5223C651.684 29.9563 651.66 29.7102 651.942 29.7225C653.489 31.1006 655.527 33.8691 656.263 36.9822C656.607 38.4096 656.669 39.8984 656.312 41.375C658.326 42.2117 660.72 43.5775 660.081 45.657C659.811 45.6447 659.689 45.657 659.566 45.657C659.959 44.4143 659.087 43.4914 656.767 42.4455C654.36 41.3873 652.347 41.3873 652.065 43.9836C650.579 44.5004 649.818 45.7924 649.437 47.3428C649.094 48.7209 648.996 50.382 648.897 52.2523C648.836 53.1998 648.455 54.4672 648.062 55.8207C644.122 58.6385 638.646 59.8689 634.03 56.7066ZM665.631 55.2916C665.52 57.3588 660.573 57.7402 657.872 61.0133C656.251 62.9451 654.262 64.0156 652.519 64.151C650.776 64.2863 649.266 63.5604 648.382 61.7762C647.805 60.4104 648.087 58.9338 648.517 57.3096C648.971 55.5623 649.646 53.7658 649.732 52.3139C649.83 50.4436 649.941 48.807 650.248 47.552C650.567 46.2846 651.058 45.4356 651.93 44.9557C651.967 44.9311 652.016 44.9188 652.052 44.8941C652.151 46.5184 652.949 48.1672 654.36 48.524C655.907 48.9301 658.129 47.6012 659.075 46.5184C660.18 46.4814 661.002 46.4076 661.849 47.1459C663.065 48.1918 662.721 50.8742 663.949 52.2647C665.25 53.692 665.667 54.6641 665.631 55.2916ZM634.276 20.2971C634.521 20.5309 634.853 20.8508 635.258 21.1707C636.068 21.8106 637.198 22.475 638.609 22.475C640.033 22.475 641.372 21.749 642.513 21.1461C643.115 20.8262 643.852 20.2848 644.33 19.8664C644.809 19.4481 645.055 19.0912 644.711 19.0543C644.367 19.0174 644.392 19.3742 643.974 19.6818C643.434 20.0756 642.783 20.5924 642.268 20.8877C641.359 21.4045 639.874 22.1428 638.597 22.1428C637.32 22.1428 636.301 21.5522 635.54 20.9492C635.16 20.6416 634.84 20.334 634.595 20.1002C634.411 19.9279 634.362 19.5342 634.067 19.4973C633.895 19.485 633.846 19.9525 634.276 20.2971Z" fill="white"/>
</g>
<defs>
<clipPath id="clip0_233_47">
<rect width="55" height="63" fill="white" transform="translate(613 2)"/>
</clipPath>
</defs>
</svg>
