<svg width="44" height="40" viewBox="0 0 44 40" fill="none" xmlns="http://www.w3.org/2000/svg">
<path d="M11.7143 3.33337C10.7629 3.33337 9.85043 3.68456 9.17768 4.30968C8.50493 4.93481 8.12698 5.78265 8.12698 6.66671V33.3334C8.12698 34.2174 8.50493 35.0653 9.17768 35.6904C9.85043 36.3155 10.7629 36.6667 11.7143 36.6667H33.2381C34.1895 36.6667 35.102 36.3155 35.7747 35.6904C36.4475 35.0653 36.8254 34.2174 36.8254 33.3334V13.3334L26.0635 3.33337H11.7143ZM11.7143 6.66671H24.2698V15H33.2381V33.3334H11.7143V6.66671ZM15.3016 20V23.3334H29.6508V20H15.3016ZM15.3016 26.6667V30H24.2698V26.6667H15.3016Z" fill="#E7EBC5"/>
</svg>
